<svg width="174" height="72" viewBox="0 0 174 72" fill="none" xmlns="http://www.w3.org/2000/svg">
<g filter="url(#filter0_d_1_2)">
<path d="M18.0483 55.296C16.4696 55.296 15.0829 55.168 13.8883 54.912C12.6936 54.656 11.6483 54.0373 10.7523 53.056C9.89892 52.0747 9.47225 50.56 9.47225 48.512C9.47225 45.6533 10.3256 41.8133 12.0323 36.992C13.7816 32.1707 16.0643 27.328 18.8803 22.464C16.7469 22.592 15.0616 22.912 13.8243 23.424C12.5869 23.936 11.7763 24.7253 11.3923 25.792C11.5629 25.792 11.7336 26.0053 11.9043 26.432C12.1176 26.8587 12.2243 27.3067 12.2243 27.776C12.2243 28.544 11.8829 29.1627 11.2003 29.632C10.5176 30.0587 9.66425 30.272 8.64025 30.272C7.44559 30.272 6.48559 29.952 5.76025 29.312C5.03492 28.672 4.67225 27.7547 4.67225 26.56C4.67225 25.1093 5.22692 23.7867 6.33625 22.592C7.48825 21.3973 9.06692 20.4587 11.0723 19.776C13.0776 19.0507 15.2963 18.688 17.7283 18.688C18.6243 18.688 19.7336 18.752 21.0563 18.88C24.5549 13.3333 28.2456 8.81066 32.1283 5.312C36.0536 1.77066 39.7869 -3.8147e-06 43.3283 -3.8147e-06C45.3763 -3.8147e-06 47.0616 0.298663 48.3843 0.895996L38.3363 48H29.1203L34.0483 24.768C32.4696 24.0427 31.0189 23.5093 29.6963 23.168C28.3736 22.8267 26.9656 22.592 25.4723 22.464C23.0403 27.712 21.0349 33.088 19.4563 38.592C17.9203 44.0533 17.1523 48.4267 17.1523 51.712C17.1523 53.3333 17.4509 54.528 18.0483 55.296ZM38.3363 4.544C36.5016 5.52533 34.5816 7.36 32.5763 10.048C30.6136 12.6933 28.6936 15.9147 26.8163 19.712C29.8883 20.3093 32.4909 21.056 34.6243 21.952L38.3363 4.544ZM52.4783 16H61.6943L60.8623 19.968C62.3129 18.688 63.6143 17.7067 64.7663 17.024C65.9609 16.3413 67.2409 16 68.6063 16C69.9716 16 71.0383 16.4693 71.8063 17.408C72.6169 18.3467 73.0223 19.4773 73.0223 20.8C73.0223 22.0373 72.6169 23.1253 71.8063 24.064C70.9956 25.0027 69.8649 25.472 68.4143 25.472C67.4756 25.472 66.8356 25.2587 66.4943 24.832C66.1956 24.3627 65.9609 23.7013 65.7903 22.848C65.6623 22.2933 65.5343 21.888 65.4063 21.632C65.2783 21.376 65.0436 21.248 64.7023 21.248C63.8063 21.248 63.0383 21.44 62.3983 21.824C61.8009 22.1653 61.0116 22.784 60.0303 23.68L54.9103 48H45.6943L52.4783 16ZM83.4528 64C81.4048 64 79.6981 63.4667 78.3328 62.4C76.9674 61.3333 76.2848 59.7973 76.2848 57.792C76.2848 55.36 77.2661 53.3973 79.2288 51.904C81.1914 50.4533 83.6874 49.2373 86.7168 48.256L87.4848 44.8C86.2474 46.1653 84.9888 47.104 83.7088 47.616C82.4288 48.128 81.1274 48.384 79.8048 48.384C77.7568 48.384 76.0928 47.744 74.8128 46.464C73.5754 45.184 72.9567 43.264 72.9567 40.704C72.9567 39.6373 73.1274 38.2507 73.4688 36.544L77.8208 16H87.0368L82.4288 37.76C82.3008 38.272 82.2368 38.8053 82.2368 39.36C82.2368 41.2373 82.8768 42.176 84.1568 42.176C85.2661 42.176 86.2474 41.7067 87.1008 40.768C87.9541 39.7867 88.6368 38.5067 89.1488 36.928L93.6288 16H102.845L96.5088 45.696C98.5568 45.0133 100.199 43.9893 101.437 42.624C102.674 41.2587 103.719 39.232 104.573 36.544H107.261C106.109 40.3413 104.551 43.136 102.589 44.928C100.626 46.6773 98.4074 47.872 95.9328 48.512L94.9728 53.12C94.1194 57.2587 92.6474 60.096 90.5568 61.632C88.4661 63.2107 86.0981 64 83.4528 64ZM81.9808 59.008C82.7061 59.008 83.4101 58.5173 84.0928 57.536C84.7754 56.5547 85.3088 55.1467 85.6928 53.312L86.0768 51.456C81.8954 52.992 79.8048 54.8053 79.8048 56.896C79.8048 57.4507 79.9968 57.9413 80.3808 58.368C80.7648 58.7947 81.2981 59.008 81.9808 59.008ZM113.554 48.384C111.122 48.384 109.095 47.552 107.474 45.888C105.852 44.224 105.042 41.6213 105.042 38.08C105.042 34.9227 105.66 31.616 106.898 28.16C108.178 24.6613 110.055 21.7173 112.53 19.328C115.047 16.896 118.034 15.68 121.49 15.68C123.239 15.68 124.54 15.9787 125.394 16.576C126.247 17.1733 126.674 17.9627 126.674 18.944V19.392L127.378 16H136.594L131.986 37.76C131.815 38.4 131.73 39.0827 131.73 39.808C131.73 41.6427 132.604 42.56 134.354 42.56C135.548 42.56 136.572 42.0053 137.426 40.896C138.322 39.7867 139.026 38.336 139.538 36.544H142.226C140.647 41.152 138.684 44.288 136.338 45.952C134.034 47.5733 131.708 48.384 129.362 48.384C127.57 48.384 126.119 47.8933 125.01 46.912C123.943 45.888 123.303 44.416 123.09 42.496C121.852 44.2453 120.466 45.6747 118.93 46.784C117.436 47.8507 115.644 48.384 113.554 48.384ZM117.714 42.176C118.78 42.176 119.826 41.6853 120.85 40.704C121.916 39.68 122.642 38.2933 123.026 36.544L126.098 22.08C126.098 21.5253 125.884 20.992 125.458 20.48C125.031 19.9253 124.37 19.648 123.474 19.648C121.767 19.648 120.231 20.6507 118.866 22.656C117.5 24.6187 116.434 27.008 115.666 29.824C114.898 32.5973 114.514 35.0507 114.514 37.184C114.514 39.3173 114.812 40.6827 115.41 41.28C116.05 41.8773 116.818 42.176 117.714 42.176ZM162.857 48.384C160.596 48.384 158.953 47.7013 157.929 46.336C156.905 44.9707 156.393 43.2427 156.393 41.152C156.393 40.256 156.5 39.2533 156.713 38.144C156.927 36.992 157.14 35.8827 157.353 34.816C157.609 33.7493 157.78 33.0667 157.865 32.768C158.207 31.2747 158.527 29.8027 158.825 28.352C159.124 26.9013 159.273 25.728 159.273 24.832C159.273 22.656 158.505 21.568 156.969 21.568C155.86 21.568 154.879 22.1227 154.025 23.232C153.172 24.2987 152.489 25.7067 151.977 27.456L147.625 48H138.409L145.193 16H154.409L153.705 19.328C155.839 16.9387 158.335 15.744 161.193 15.744C163.369 15.744 165.097 16.3413 166.377 17.536C167.657 18.7307 168.297 20.544 168.297 22.976C168.297 24.2133 168.148 25.6 167.849 27.136C167.551 28.6293 167.124 30.464 166.569 32.64C166.228 33.9627 165.908 35.264 165.609 36.544C165.353 37.7813 165.225 38.7627 165.225 39.488C165.225 40.3413 165.417 41.0027 165.801 41.472C166.185 41.9413 166.847 42.176 167.785 42.176C168.809 42.176 169.513 42.048 169.897 41.792C169.641 43.968 168.852 45.6107 167.529 46.72C166.249 47.8293 164.692 48.384 162.857 48.384Z" fill="#FFAB40"/>
</g>
<defs>
<filter id="filter0_d_1_2" x="0.672253" y="-7.62939e-06" width="173.225" height="72" filterUnits="userSpaceOnUse" color-interpolation-filters="sRGB">
<feFlood flood-opacity="0" result="BackgroundImageFix"/>
<feColorMatrix in="SourceAlpha" type="matrix" values="0 0 0 0 0 0 0 0 0 0 0 0 0 0 0 0 0 0 127 0" result="hardAlpha"/>
<feOffset dy="4"/>
<feGaussianBlur stdDeviation="2"/>
<feComposite in2="hardAlpha" operator="out"/>
<feColorMatrix type="matrix" values="0 0 0 0 0 0 0 0 0 0 0 0 0 0 0 0 0 0 0.25 0"/>
<feBlend mode="normal" in2="BackgroundImageFix" result="effect1_dropShadow_1_2"/>
<feBlend mode="normal" in="SourceGraphic" in2="effect1_dropShadow_1_2" result="shape"/>
</filter>
</defs>
</svg>
